<svg class="ldi-ax4et0" width="100%" height="100%" xmlns="http://www.w3.org/2000/svg" xmlns:xlink="http://www.w3.org/1999/xlink" viewBox="0 0 100 100" preserveAspectRatio="xMidYMid"><!--?xml version="1.0" encoding="utf-8"?--><!--Generator: Adobe Illustrator 21.0.0, SVG Export Plug-In . SVG Version: 6.00 Build 0)--><svg version="1.1" id="layout_1" xmlns="http://www.w3.org/2000/svg" xmlns:xlink="http://www.w3.org/1999/xlink" x="0px" y="0px" viewBox="0 0 100 100" style="transform-origin: 50px 50px 0px;" xml:space="preserve"><g style="transform-origin: 50px 50px 0px;"><g fill="#c7a377" style="fill: rgb(199, 163, 119); transform-origin: 50px 50px 0px; transform: scale(0.6);"><g class="ld ld-breath" style="transform-origin: 50px 50px 0px; animation-duration: 1s; animation-delay: -1s; animation-direction: normal;"><g fill="#c7a377" style="fill: rgb(199, 163, 119);"><style type="text/css" style="transform-origin: 50px 50px 0px;">.st0{fill:#849B87;stroke:#333333;stroke-width:3;stroke-miterlimit:10;} .st1{fill:#A0C8D7;stroke:#333333;stroke-width:3;stroke-miterlimit:10;} .st2{fill:#F5E6C8;} .st3{fill:#ABBD81;} .st4{fill:#F5E6C8;stroke:#000000;stroke-width:2.5;stroke-miterlimit:10;} .st5{fill:#333333;} .st6{fill:#F5E6C8;stroke:#000000;stroke-width:3.5;stroke-miterlimit:10;} .st7{fill:#849B87;} .st8{fill:#F5E6C8;stroke:#333333;stroke-width:4;stroke-miterlimit:10;} .st9{fill:#C33737;} .st10{fill:#A0C8D7;} .st11{fill:#F5E6C8;stroke:#333333;stroke-width:3;stroke-miterlimit:10;} .st12{fill:#A3A3A3;} .st13{fill:#F5E6C8;stroke:#000000;stroke-width:3.8621;stroke-miterlimit:10;} .st14{fill:#FFDC6C;} .st15{fill:#ABBD81;stroke:#333333;stroke-width:3;stroke-miterlimit:10;} .st16{fill:#E15B64;} .st17{fill:#F5E6C8;stroke:#333333;stroke-width:3.6781;stroke-miterlimit:10;} .st18{fill:#F5E6C8;stroke:#333333;stroke-width:2.7586;stroke-miterlimit:10;} .st19{fill:#F5E6C8;stroke:#333333;stroke-width:3.9518;stroke-miterlimit:10;} .st20{fill:#FFFFFF;stroke:#333333;stroke-width:3.9092;stroke-miterlimit:10;} .st21{fill:#FFFFFF;stroke:#333333;stroke-width:3.6699;stroke-miterlimit:10;} .st22{fill:#F5E6C8;stroke:#000000;stroke-width:3;stroke-miterlimit:10;} .st23{fill:#F47E60;} .st24{fill:#F8B26A;} .st25{fill:#FFFFFF;} .st26{fill:#F5E6C8;stroke:#000000;stroke-width:3.9059;stroke-miterlimit:10;} .st27{fill:#F5E6C8;stroke:#000000;stroke-width:4;stroke-miterlimit:10;} .st28{fill:#C33636;} .st29{fill:#F5E6C8;stroke:#000000;stroke-width:3.8153;stroke-miterlimit:10;} .st30{fill:#E0E0E0;} .st31{fill:#F5E6C8;stroke:#000000;stroke-width:2.9643;stroke-miterlimit:10;} .st32{fill:#E15B64;stroke:#000000;stroke-width:2.9419;stroke-miterlimit:10;} .st33{fill:#666666;} .st34{fill:#FCEDCE;} .st35{fill:#FFF2D9;} .st36{fill:#7A8F7C;} .st37{fill:#96B099;}</style><g style="transform-origin: 50px 50px 0px;"><path class="st2" d="M43.139,19.758c1.423-0.742,3.365-1.753,4.205-1.78c3.046,0.117,5.865,0.172,8.865,0.172 c1.708,0,3.297-0.017,4.878-0.035c1.549-0.016,3.089-0.033,4.728-0.033c3.247,0,6.177,0.066,9.503,0.213 c0.422,0.019,0.873,0.027,1.345,0.033c4.548,0.066,5.473,0.578,5.505,3.048c0.013,1.023,0.021,1.536-4.17,1.759 c-0.562,0.03-1.108,0.06-1.614,0.109l0.177,4.84l0.471,0.005c0.343,0,0.715-0.008,1.107-0.014c0.406-0.008,0.834-0.017,1.273-0.017 c4.914,0,4.923,1.323,4.931,2.489c0.016,2.155-0.933,3.325-6.165,3.744l-0.062,4.83l0.827,0.084c5.31,0.532,7.838,1.216,7.838,3.659 c0,0.906,0,3.03-7.772,3.142l-0.058,4.849l0.66,0.024c6.161,0.208,8.039,1.116,8.039,3.886c0,2.506-4.592,3.032-7.328,3.122 c-1.975,0.065-4.17-0.033-6.523-0.136c-3.149-0.139-6.548-0.246-8.997-0.047l-2.969,0.24l1.181,4.03 c1.568,5.309,2.514,8.514,1.521,13.765c-0.78,4.124-3.577,6.495-7.739,6.277C56.027,70.82,52.435,53.75,38.137,48.28 c0.103-4.573,0.027-9.051-0.047-13.4c-0.071-4.196-0.144-8.514-0.055-12.887C39.719,21.538,41.45,20.638,43.139,19.758z" fill="#f1dec7" style="fill: rgb(241, 222, 199);"></path></g><g style="transform-origin: 50px 50px 0px;"><path d="M91.632,42.863c0-3.61-1.961-5.621-4.458-6.785c1.216-1.246,2.037-3.024,2.018-5.566c-0.019-2.65-1.012-4.585-2.962-5.795 c0.507-0.872,0.805-1.983,0.788-3.403c-0.099-7.688-6.979-7.786-10.286-7.835c-0.42-0.005-0.824-0.011-1.2-0.027 c-3.354-0.15-6.441-0.219-9.717-0.219c-1.658,0-3.215,0.017-4.78,0.033C59.471,13.283,57.9,13.3,56.209,13.3 c-2.958,0-5.734-0.054-8.738-0.171l-0.093-0.002c-2.009,0-4.18,1.131-6.479,2.328c-1.428,0.744-3.143,1.631-4.384,1.902 l0.016,35.552c12.493,4.948,15.118,21.602,15.532,31.366l0.082,1.906l1.871,0.371c1.077,0.213,2.141,0.321,3.166,0.321 c6.278,0,10.922-3.921,12.118-10.232c1.075-5.683,0.256-9.506-1.096-14.207c1.723,0.003,3.583,0.084,5.381,0.163 c2.343,0.101,4.77,0.205,6.894,0.137c10.46-0.344,12.021-5.141,12.021-7.969c0-3.267-1.331-5.294-3.198-6.559 C90.69,47.03,91.632,45.329,91.632,42.863z M87.649,54.764c0,2.506-4.592,3.032-7.328,3.122c-1.975,0.065-4.17-0.033-6.523-0.136 c-3.149-0.139-6.548-0.246-8.997-0.047l-2.969,0.24l1.181,4.03c1.568,5.309,2.514,8.514,1.521,13.765 c-0.78,4.124-3.577,6.495-7.739,6.277C56.027,70.82,52.435,53.75,38.137,48.28c0.103-4.573,0.027-9.051-0.047-13.4 c-0.071-4.196-0.144-8.514-0.055-12.887c1.685-0.456,3.415-1.356,5.105-2.236c1.423-0.742,3.365-1.753,4.205-1.78 c3.046,0.117,5.865,0.172,8.865,0.172c1.708,0,3.297-0.017,4.878-0.035c1.549-0.016,3.089-0.033,4.728-0.033 c3.247,0,6.177,0.066,9.503,0.213c0.422,0.019,0.873,0.027,1.345,0.033c4.548,0.066,5.473,0.578,5.505,3.048 c0.013,1.023,0.021,1.536-4.17,1.759c-0.562,0.03-1.108,0.06-1.614,0.109l0.177,4.84l0.471,0.005c0.343,0,0.715-0.008,1.107-0.014 c0.406-0.008,0.834-0.017,1.273-0.017c4.914,0,4.923,1.323,4.931,2.489c0.016,2.155-0.933,3.325-6.165,3.744l-0.062,4.83 l0.827,0.084c5.31,0.532,7.838,1.216,7.838,3.659c0,0.906,0,3.03-7.772,3.142l-0.058,4.849l0.66,0.024 C85.772,51.086,87.649,51.994,87.649,54.764z" fill="#c7a377" style="fill: rgb(199, 163, 119);"></path></g><g style="transform-origin: 50px 50px 0px;"><path class="st7" d="M35.164,55.572h-0.417H15.585c-4.465,0-8.085-3.62-8.085-8.085V22.83c0-4.465,3.62-8.085,8.085-8.085h19.163 h0.417c1.593,0,2.92,1.119,3.25,2.612l0.016,35.552C38.12,54.429,36.776,55.572,35.164,55.572z" fill="#7a8ca6" style="fill: rgb(122, 140, 166);"></path></g><metadata xmlns:d="https://loading.io/stock/" style="transform-origin: 50px 50px 0px;">
<d:name style="transform-origin: 50px 50px 0px;">dislike</d:name>
<d:tags style="transform-origin: 50px 50px 0px;">suck,hate,boo,fail,thumb down,reject,dislike,conversation</d:tags>
<d:license style="transform-origin: 50px 50px 0px;">cc-by</d:license>
<d:slug style="transform-origin: 50px 50px 0px;">ax4et0</d:slug>
</metadata></g></g></g></g><style type="text/css" style="transform-origin: 50px 50px 0px;">path,ellipse,circle,rect,polygon,polyline,line { stroke-width: 0; }@keyframes ld-breath {
  0% {
    -webkit-transform: scale(0.86);
    transform: scale(0.86);
  }
  50% {
    -webkit-transform: scale(1.06);
    transform: scale(1.06);
  }
  100% {
    -webkit-transform: scale(0.86);
    transform: scale(0.86);
  }
}
@-webkit-keyframes ld-breath {
  0% {
    -webkit-transform: scale(0.86);
    transform: scale(0.86);
  }
  50% {
    -webkit-transform: scale(1.06);
    transform: scale(1.06);
  }
  100% {
    -webkit-transform: scale(0.86);
    transform: scale(0.86);
  }
}
.ld.ld-breath {
  -webkit-animation: ld-breath 1s infinite;
  animation: ld-breath 1s infinite;
}
</style></svg></svg>