<svg class="lds-flask" width="100%" height="100%" xmlns="http://www.w3.org/2000/svg" xmlns:xlink="http://www.w3.org/1999/xlink" viewBox="0 0 100 100" preserveAspectRatio="xMidYMid"><defs>
<clipPath id="lds-flask-cpid-394fc5900801b" clipPathUnits="userSpaceOnUse">
<rect x="0" y="50" width="100" height="50"></rect>
</clipPath>
<pattern id="lds-flask-patid-621151f9bea3a" patternUnits="userSpaceOnUse" x="0" y="0" width="100" height="100">
<rect x="0" y="0" width="100" height="100" fill="#fe718d"></rect><circle cx="18" cy="0" r="3" fill="#e90c59" transform="translate(0 67.6091)">
<animateTransform attributeName="transform" type="translate" values="0 143;0 -43" keyTimes="0;1" dur="3s" begin="-2.1s" repeatCount="indefinite"></animateTransform>
</circle><circle cx="56" cy="0" r="3" fill="#e90c59" transform="translate(0 95.7009)">
<animateTransform attributeName="transform" type="translate" values="0 125;0 -25" keyTimes="0;1" dur="3s" begin="-1.47s" repeatCount="indefinite"></animateTransform>
</circle><circle cx="82" cy="0" r="2" fill="#e90c59" transform="translate(0 56.5185)">
<animateTransform attributeName="transform" type="translate" values="0 144;0 -44" keyTimes="0;1" dur="3s" begin="-2.28s" repeatCount="indefinite"></animateTransform>
</circle><circle cx="68" cy="0" r="2" fill="#e90c59" transform="translate(0 93.5517)">
<animateTransform attributeName="transform" type="translate" values="0 139;0 -39" keyTimes="0;1" dur="3s" begin="-1.65s" repeatCount="indefinite"></animateTransform>
</circle><circle cx="76" cy="0" r="3" fill="#e90c59" transform="translate(0 71.0527)">
<animateTransform attributeName="transform" type="translate" values="0 107;0 -7" keyTimes="0;1" dur="3s" begin="-1.83s" repeatCount="indefinite"></animateTransform>
</circle><circle cx="44" cy="0" r="3" fill="#e90c59" transform="translate(0 42.422)">
<animateTransform attributeName="transform" type="translate" values="0 108;0 -8" keyTimes="0;1" dur="3s" begin="-2.58s" repeatCount="indefinite"></animateTransform>
</circle><circle cx="3" cy="0" r="2" fill="#e90c59" transform="translate(0 -1.21088)">
<animateTransform attributeName="transform" type="translate" values="0 143;0 -43" keyTimes="0;1" dur="3s" begin="-0.21s" repeatCount="indefinite"></animateTransform>
</circle><circle cx="55" cy="0" r="2" fill="#e90c59" transform="translate(0 58.0916)">
<animateTransform attributeName="transform" type="translate" values="0 124;0 -24" keyTimes="0;1" dur="3s" begin="-2.22s" repeatCount="indefinite"></animateTransform>
</circle><circle cx="84" cy="0" r="3" fill="#e90c59" transform="translate(0 26.7237)">
<animateTransform attributeName="transform" type="translate" values="0 136;0 -36" keyTimes="0;1" dur="3s" begin="-2.79s" repeatCount="indefinite"></animateTransform>
</circle><circle cx="22" cy="0" r="2" fill="#e90c59" transform="translate(0 43.4729)">
<animateTransform attributeName="transform" type="translate" values="0 122;0 -22" keyTimes="0;1" dur="3s" begin="-2.52s" repeatCount="indefinite"></animateTransform>
</circle><circle cx="34" cy="0" r="2" fill="#e90c59" transform="translate(0 13.0463)">
<animateTransform attributeName="transform" type="translate" values="0 132;0 -32" keyTimes="0;1" dur="3s" begin="-0.06s" repeatCount="indefinite"></animateTransform>
</circle><circle cx="84" cy="0" r="3" fill="#e90c59" transform="translate(0 41.1155)">
<animateTransform attributeName="transform" type="translate" values="0 118;0 -18" keyTimes="0;1" dur="3s" begin="-2.58s" repeatCount="indefinite"></animateTransform>
</circle><circle cx="80" cy="0" r="2" fill="#e90c59" transform="translate(0 43.2916)">
<animateTransform attributeName="transform" type="translate" values="0 124;0 -24" keyTimes="0;1" dur="3s" begin="-2.52s" repeatCount="indefinite"></animateTransform>
</circle><circle cx="83" cy="0" r="3" fill="#e90c59" transform="translate(0 30.9345)">
<animateTransform attributeName="transform" type="translate" values="0 150;0 -50" keyTimes="0;1" dur="3s" begin="-2.67s" repeatCount="indefinite"></animateTransform>
</circle><circle cx="10" cy="0" r="2" fill="#e90c59" transform="translate(0 0.441086)">
<animateTransform attributeName="transform" type="translate" values="0 140;0 -40" keyTimes="0;1" dur="3s" begin="-0.21s" repeatCount="indefinite"></animateTransform>
</circle><circle cx="0" cy="0" r="2" fill="#e90c59" transform="translate(0 84.1233)">
<animateTransform attributeName="transform" type="translate" values="0 106;0 -6" keyTimes="0;1" dur="3s" begin="-1.47s" repeatCount="indefinite"></animateTransform>
</circle><circle cx="8" cy="0" r="2" fill="#e90c59" transform="translate(0 3.80352)">
<animateTransform attributeName="transform" type="translate" values="0 121;0 -21" keyTimes="0;1" dur="3s" begin="-0.36s" repeatCount="indefinite"></animateTransform>
</circle><circle cx="89" cy="0" r="3" fill="#e90c59" transform="translate(0 45.6194)">
<animateTransform attributeName="transform" type="translate" values="0 112;0 -12" keyTimes="0;1" dur="3s" begin="-2.49s" repeatCount="indefinite"></animateTransform>
</circle><circle cx="37" cy="0" r="3" fill="#e90c59" transform="translate(0 -14.8337)">
<animateTransform attributeName="transform" type="translate" values="0 132;0 -32" keyTimes="0;1" dur="3s" begin="-0.57s" repeatCount="indefinite"></animateTransform>
</circle><circle cx="85" cy="0" r="2" fill="#e90c59" transform="translate(0 34.6222)">
<animateTransform attributeName="transform" type="translate" values="0 123;0 -23" keyTimes="0;1" dur="3s" begin="-2.7s" repeatCount="indefinite"></animateTransform>
</circle><circle cx="27" cy="0" r="3" fill="#e90c59" transform="translate(0 82.3157)">
<animateTransform attributeName="transform" type="translate" values="0 133;0 -33" keyTimes="0;1" dur="3s" begin="-1.8s" repeatCount="indefinite"></animateTransform>
</circle><circle cx="24" cy="0" r="3" fill="#e90c59" transform="translate(0 66.9345)">
<animateTransform attributeName="transform" type="translate" values="0 150;0 -50" keyTimes="0;1" dur="3s" begin="-2.13s" repeatCount="indefinite"></animateTransform>
</circle><circle cx="78" cy="0" r="3" fill="#e90c59" transform="translate(0 -8.56976)">
<animateTransform attributeName="transform" type="translate" values="0 126;0 -26" keyTimes="0;1" dur="3s" begin="-0.54s" repeatCount="indefinite"></animateTransform>
</circle><circle cx="26" cy="0" r="3" fill="#e90c59" transform="translate(0 45.6944)">
<animateTransform attributeName="transform" type="translate" values="0 135;0 -35" keyTimes="0;1" dur="3s" begin="-2.46s" repeatCount="indefinite"></animateTransform>
</circle><circle cx="7" cy="0" r="2" fill="#e90c59" transform="translate(0 25.1661)">
<animateTransform attributeName="transform" type="translate" values="0 117;0 -17" keyTimes="0;1" dur="3s" begin="-2.94s" repeatCount="indefinite"></animateTransform>
</circle><circle cx="25" cy="0" r="2" fill="#e90c59" transform="translate(0 57.505)">
<animateTransform attributeName="transform" type="translate" values="0 134;0 -34" keyTimes="0;1" dur="3s" begin="-2.25s" repeatCount="indefinite"></animateTransform>
</circle><circle cx="53" cy="0" r="2" fill="#e90c59" transform="translate(0 22.0411)">
<animateTransform attributeName="transform" type="translate" values="0 140;0 -40" keyTimes="0;1" dur="3s" begin="-2.85s" repeatCount="indefinite"></animateTransform>
</circle><circle cx="80" cy="0" r="3" fill="#e90c59" transform="translate(0 107.27)">
<animateTransform attributeName="transform" type="translate" values="0 141;0 -41" keyTimes="0;1" dur="3s" begin="-1.44s" repeatCount="indefinite"></animateTransform>
</circle><circle cx="15" cy="0" r="2" fill="#e90c59" transform="translate(0 75.0491)">
<animateTransform attributeName="transform" type="translate" values="0 143;0 -43" keyTimes="0;1" dur="3s" begin="-1.98s" repeatCount="indefinite"></animateTransform>
</circle><circle cx="40" cy="0" r="2" fill="#e90c59" transform="translate(0 128.145)">
<animateTransform attributeName="transform" type="translate" values="0 149;0 -49" keyTimes="0;1" dur="3s" begin="-1.2s" repeatCount="indefinite"></animateTransform>
</circle><circle cx="9" cy="0" r="2" fill="#e90c59" transform="translate(0 -18.1137)">
<animateTransform attributeName="transform" type="translate" values="0 132;0 -32" keyTimes="0;1" dur="3s" begin="-0.63s" repeatCount="indefinite"></animateTransform>
</circle><circle cx="20" cy="0" r="2" fill="#e90c59" transform="translate(0 48.2833)">
<animateTransform attributeName="transform" type="translate" values="0 106;0 -6" keyTimes="0;1" dur="3s" begin="-2.43s" repeatCount="indefinite"></animateTransform>
</circle><circle cx="61" cy="0" r="3" fill="#e90c59" transform="translate(0 34.7101)">
<animateTransform attributeName="transform" type="translate" values="0 111;0 -11" keyTimes="0;1" dur="3s" begin="-2.76s" repeatCount="indefinite"></animateTransform>
</circle><circle cx="43" cy="0" r="3" fill="#e90c59" transform="translate(0 106.69)">
<animateTransform attributeName="transform" type="translate" values="0 111;0 -11" keyTimes="0;1" dur="3s" begin="-0.99s" repeatCount="indefinite"></animateTransform>
</circle><circle cx="61" cy="0" r="3" fill="#e90c59" transform="translate(0 55.0622)">
<animateTransform attributeName="transform" type="translate" values="0 123;0 -23" keyTimes="0;1" dur="3s" begin="-2.28s" repeatCount="indefinite"></animateTransform>
</circle><circle cx="68" cy="0" r="2" fill="#e90c59" transform="translate(0 23.5504)">
<animateTransform attributeName="transform" type="translate" values="0 141;0 -41" keyTimes="0;1" dur="3s" begin="-2.82s" repeatCount="indefinite"></animateTransform>
</circle><circle cx="72" cy="0" r="3" fill="#e90c59" transform="translate(0 97.5648)">
<animateTransform attributeName="transform" type="translate" values="0 119;0 -19" keyTimes="0;1" dur="3s" begin="-1.35s" repeatCount="indefinite"></animateTransform>
</circle><circle cx="54" cy="0" r="3" fill="#e90c59" transform="translate(0 -23.0337)">
<animateTransform attributeName="transform" type="translate" values="0 132;0 -32" keyTimes="0;1" dur="3s" begin="-0.72s" repeatCount="indefinite"></animateTransform>
</circle><circle cx="60" cy="0" r="2" fill="#e90c59" transform="translate(0 20.4329)">
<animateTransform attributeName="transform" type="translate" values="0 122;0 -22" keyTimes="0;1" dur="3s" begin="0s" repeatCount="indefinite"></animateTransform>
</circle><circle cx="98" cy="0" r="2" fill="#e90c59" transform="translate(0 97.2437)">
<animateTransform attributeName="transform" type="translate" values="0 136;0 -36" keyTimes="0;1" dur="3s" begin="-1.56s" repeatCount="indefinite"></animateTransform>
</circle><circle cx="48" cy="0" r="2" fill="#e90c59" transform="translate(0 112.041)">
<animateTransform attributeName="transform" type="translate" values="0 140;0 -40" keyTimes="0;1" dur="3s" begin="-1.35s" repeatCount="indefinite"></animateTransform>
</circle><circle cx="89" cy="0" r="2" fill="#e90c59" transform="translate(0 1.99846)">
<animateTransform attributeName="transform" type="translate" values="0 144;0 -44" keyTimes="0;1" dur="3s" begin="-0.15s" repeatCount="indefinite"></animateTransform>
</circle><circle cx="94" cy="0" r="2" fill="#e90c59" transform="translate(0 69.7607)">
<animateTransform attributeName="transform" type="translate" values="0 110;0 -10" keyTimes="0;1" dur="3s" begin="-1.89s" repeatCount="indefinite"></animateTransform>
</circle><circle cx="25" cy="0" r="2" fill="#e90c59" transform="translate(0 47.8848)">
<animateTransform attributeName="transform" type="translate" values="0 119;0 -19" keyTimes="0;1" dur="3s" begin="-2.43s" repeatCount="indefinite"></animateTransform>
</circle><circle cx="98" cy="0" r="3" fill="#e90c59" transform="translate(0 -40.2735)">
<animateTransform attributeName="transform" type="translate" values="0 147;0 -47" keyTimes="0;1" dur="3s" begin="-0.78s" repeatCount="indefinite"></animateTransform>
</circle><circle cx="83" cy="0" r="3" fill="#e90c59" transform="translate(0 29.697)">
<animateTransform attributeName="transform" type="translate" values="0 131;0 -31" keyTimes="0;1" dur="3s" begin="-2.76s" repeatCount="indefinite"></animateTransform>
</circle><circle cx="20" cy="0" r="3" fill="#e90c59" transform="translate(0 114.625)">
<animateTransform attributeName="transform" type="translate" values="0 134;0 -34" keyTimes="0;1" dur="3s" begin="-1.23s" repeatCount="indefinite"></animateTransform>
</circle><circle cx="63" cy="0" r="3" fill="#e90c59" transform="translate(0 1.77007)">
<animateTransform attributeName="transform" type="translate" values="0 111;0 -11" keyTimes="0;1" dur="3s" begin="-0.57s" repeatCount="indefinite"></animateTransform>
</circle><circle cx="52" cy="0" r="3" fill="#e90c59" transform="translate(0 58.6661)">
<animateTransform attributeName="transform" type="translate" values="0 117;0 -17" keyTimes="0;1" dur="3s" begin="-2.19s" repeatCount="indefinite"></animateTransform>
</circle><circle cx="1" cy="0" r="3" fill="#e90c59" transform="translate(0 73.7263)">
<animateTransform attributeName="transform" type="translate" values="0 132;0 -32" keyTimes="0;1" dur="3s" begin="-1.95s" repeatCount="indefinite"></animateTransform>
</circle>      </pattern></defs>

      <path fill="url(#lds-flask-patid-621151f9bea3a)" clip-path="url(#lds-flask-cpid-394fc5900801b)" d="M59,37.3V18.9c3-0.8,5.1-3.6,5.1-6.8C64.1,8.2,61,5,57.1,5H42.9c-3.9,0-7.1,3.2-7.1,7.1c0,3.2,2.2,6,5.1,6.8v18.4c-11.9,3.8-20.6,15-20.6,28.2C20.4,81.8,33.7,95,50,95s29.6-13.2,29.6-29.6C79.6,52.2,70.9,41.1,59,37.3z"></path>

      <path fill="none" stroke="#ffe6f5" stroke-width="5" d="M59,37.3V18.9c3-0.8,5.1-3.6,5.1-6.8C64.1,8.2,61,5,57.1,5H42.9c-3.9,0-7.1,3.2-7.1,7.1c0,3.2,2.2,6,5.1,6.8v18.4c-11.9,3.8-20.6,15-20.6,28.2C20.4,81.8,33.7,95,50,95s29.6-13.2,29.6-29.6C79.6,52.2,70.9,41.1,59,37.3z"></path>
</svg>