<svg class="ldi-no9d3d" width="100%" height="100%" xmlns="http://www.w3.org/2000/svg" xmlns:xlink="http://www.w3.org/1999/xlink" viewBox="0 0 100 100" preserveAspectRatio="xMidYMid"><!--?xml version="1.0" encoding="utf-8"?--><!--Generator: Adobe Illustrator 21.0.0, SVG Export Plug-In . SVG Version: 6.00 Build 0)--><svg version="1.1" id="圖層_1" xmlns="http://www.w3.org/2000/svg" xmlns:xlink="http://www.w3.org/1999/xlink" x="0px" y="0px" viewBox="0 0 100 100" style="transform-origin: 50px 50px 0px;" xml:space="preserve"><g style="transform-origin: 50px 50px 0px;"><g style="transform-origin: 50px 50px 0px; transform: scale(0.6);"><g style="transform-origin: 50px 50px 0px;"><g><style type="text/css" class="ld ld-tremble-px" style="transform-origin: 50px 50px 0px; animation-duration: 1s; animation-delay: -1s; animation-direction: normal;">.st0{fill:#666666;} .st1{fill:#EBB885;} .st2{fill:#E0E0E0;} .st3{fill:#A0C8D7;} .st4{fill:#66503A;} .st5{fill:#ABBD81;} .st6{fill:#A0C8D7;stroke:#333333;stroke-width:2;stroke-miterlimit:10;} .st7{fill:#FFFFFF;} .st8{fill:#66503A;stroke:#333333;stroke-width:2;stroke-miterlimit:10;} .st9{fill:#E0E0E0;stroke:#333333;stroke-width:2;stroke-miterlimit:10;} .st10{fill:#03AFF3;} .st11{fill:none;stroke:#333333;stroke-width:5;stroke-linecap:round;stroke-miterlimit:10;} .st12{fill:#8C6239;} .st13{fill:#F5E6C8;} .st14{fill:#333333;} .st15{fill:#F47E60;} .st16{fill:#E15B64;} .st17{fill:none;stroke:#000000;stroke-width:6;stroke-miterlimit:10;} .st18{fill:#4A3827;} .st19{fill:none;stroke:#666666;stroke-width:5.8262;stroke-linecap:round;stroke-miterlimit:10;} .st20{fill:#77A4BD;} .st21{fill:#F8B26A;} .st22{fill:#849B87;} .st23{fill:none;} .st24{fill:#FFFFFF;stroke:#000000;stroke-width:4;stroke-miterlimit:10;} .st25{fill:none;stroke:#849B87;stroke-width:4;stroke-miterlimit:10;} .st26{fill:none;stroke:#849B87;stroke-width:4.1718;stroke-miterlimit:10;} .st27{fill:#C33737;} .st28{fill:#FFDC6C;stroke:#FFFFFF;stroke-width:2.4393;stroke-miterlimit:10;} .st29{stroke:#000000;stroke-width:3;stroke-miterlimit:10;} .st30{stroke:#000000;stroke-width:3;stroke-linecap:round;stroke-linejoin:round;stroke-miterlimit:10;} .st31{fill:#E0E0E0;stroke:#000000;stroke-width:3;stroke-miterlimit:10;} .st32{fill:#735441;} .st33{fill:#C8DC96;} .st34{fill:#F5E6C8;stroke:#C33737;stroke-width:6;stroke-miterlimit:10;} .st35{fill:#F5E6C8;stroke:#000000;stroke-width:4.2393;stroke-miterlimit:10;} .st36{fill:#F5E169;} .st37{fill:#FFDC6C;} .st38{fill:none;stroke:#000000;stroke-width:5.1342;stroke-miterlimit:10;} .st39{fill:none;stroke:#000000;stroke-width:4.908;stroke-miterlimit:10;} .st40{fill:none;stroke:#000000;stroke-width:5.0371;stroke-miterlimit:10;} .st41{fill:none;stroke:#000000;stroke-width:5.4333;stroke-miterlimit:10;} .st42{fill:none;stroke:#333333;stroke-width:4.308;stroke-miterlimit:10;} .st43{fill:#F8B26A;stroke:#333333;stroke-width:3;stroke-miterlimit:10;} .st44{fill:#FFFF00;stroke:#333333;stroke-width:3;stroke-miterlimit:10;} .st45{fill:#F8B26A;stroke:#F47E60;stroke-width:2.326;stroke-miterlimit:10;} .st46{fill:#333333;stroke:#333333;stroke-width:3;stroke-miterlimit:10;} .st47{fill:#8A8A8A;} .st48{fill:none;stroke:#333333;stroke-width:3;stroke-linecap:round;stroke-linejoin:round;stroke-miterlimit:10;} .st49{fill:none;stroke:#333333;stroke-width:2;stroke-linecap:round;stroke-linejoin:round;stroke-miterlimit:10;} .st50{fill:#983733;} .st51{fill:#D50D01;} .st52{fill:#81C927;} .st53{fill:#C33737;stroke:#333333;stroke-width:2;stroke-miterlimit:10;} .st54{fill:#F5E6C8;stroke:#333333;stroke-width:2;stroke-miterlimit:10;} .st55{fill:#FFFFFF;stroke:#333333;stroke-width:4;stroke-miterlimit:10;} .st56{fill:none;stroke:#E15B64;stroke-width:3;stroke-miterlimit:10;} .st57{fill:#FFFFFF;stroke:#333333;stroke-width:6;stroke-linecap:round;stroke-miterlimit:10;}</style><g class="ld ld-tremble-px" style="transform-origin: 50px 50px 0px; animation-duration: 1s; animation-delay: -0.952381s; animation-direction: normal;"><path class="st2" d="M43.303,47.905c6.142-1.883,12.284-1.883,18.426,0c1.12,0.178,2.161-0.528,2.161-1.467v-0.578 c0-0.716-0.617-1.331-1.471-1.467c-6.602-1.649-13.204-1.649-19.806,0c-0.854,0.136-1.471,0.751-1.471,1.467v0.578 C41.142,47.377,42.182,48.084,43.303,47.905z" fill="rgb(224, 224, 224)" style="fill: rgb(224, 224, 224);"></path></g><g class="ld ld-tremble-px" style="transform-origin: 50px 50px 0px; animation-duration: 1s; animation-delay: -0.904762s; animation-direction: normal;"><path class="st16" d="M76.45,79.212c5.738-4.137,9.272-9.753,9.272-15.945c0-7.467-5.133-14.1-13.082-18.305 c-5.584-2.954-12.556-4.712-20.123-4.712c-7.517,0-14.442,1.738-20.007,4.657c-0.684,0.359-1.352,0.733-1.993,1.127 c-1.46-1.225-3.089-2.27-5.03-2.878c-0.153,2.399-0.305,4.798-0.458,7.197c-3.045,3.108-5.019,6.76-5.562,10.702h-1.737 c-1.905,0-3.45,1.272-3.45,2.84v4.52c0,1.569,1.545,2.84,3.45,2.84h3.638c1.366,2.558,3.372,4.898,5.879,6.935l-0.85,1.501 l-4.354,7.687l5.75,0.444L31.477,91l4.354-7.687l0.069-0.122c4.888,1.963,10.56,3.092,16.616,3.092 c5.415,0,10.522-0.904,15.038-2.498L71.639,91l4.109-3.341l5.326-0.282l-4.354-7.687L76.45,79.212z M41.142,45.859 c0-0.716,0.617-1.331,1.471-1.467c6.602-1.649,13.204-1.649,19.806,0c0.854,0.136,1.471,0.751,1.471,1.467v0.578 c0,0.939-1.04,1.646-2.161,1.467c-6.142-1.883-12.284-1.883-18.426,0c-1.12,0.178-2.161-0.528-2.161-1.467V45.859z" fill="rgb(225, 91, 100)" style="fill: rgb(225, 91, 100);"></path></g><g style="transform-origin: 50px 50px 0px;"><g><g class="ld ld-tremble-px" style="transform-origin: 50px 50px 0px; animation-duration: 1s; animation-delay: -0.857143s; animation-direction: normal;"><path class="st37" d="M52.515,22.632c-6.11,0-11.081,4.971-11.081,11.081c0,6.11,4.971,11.082,11.081,11.082 s11.082-4.971,11.082-11.082C63.597,27.603,58.626,22.632,52.515,22.632z M53.368,39.512v1.005c0,0.513-0.416,0.928-0.928,0.928 h-0.001c-0.513,0-0.928-0.416-0.928-0.928v-0.872c-0.816-0.036-1.617-0.19-2.276-0.407c-0.547-0.179-0.857-0.755-0.714-1.313 l0.023-0.089c0.158-0.616,0.808-0.947,1.41-0.742c0.612,0.209,1.31,0.352,2.049,0.352c1.08,0,1.819-0.416,1.819-1.175 c0-0.72-0.606-1.175-2.009-1.649c-2.028-0.682-3.411-1.63-3.411-3.468c0-1.668,1.175-2.975,3.203-3.373v-0.871 c0-0.513,0.416-0.928,0.928-0.928c0.513,0,0.928,0.416,0.928,0.928v0.739c0.678,0.031,1.237,0.12,1.707,0.244 c0.589,0.155,0.947,0.746,0.796,1.336c-0.152,0.594-0.766,0.958-1.353,0.783c-0.448-0.134-1.003-0.241-1.68-0.241 c-1.232,0-1.63,0.531-1.63,1.062c0,0.625,0.663,1.023,2.274,1.629c2.255,0.796,3.165,1.838,3.165,3.544 C56.741,37.693,55.547,39.133,53.368,39.512z" fill="rgb(255, 220, 108)" style="fill: rgb(255, 220, 108);"></path></g><g class="ld ld-tremble-px" style="transform-origin: 50px 50px 0px; animation-duration: 1s; animation-delay: -0.809524s; animation-direction: normal;"><path class="st7" d="M53.577,32.462c-1.611-0.606-2.274-1.004-2.274-1.629c0-0.531,0.398-1.062,1.63-1.062 c0.677,0,1.232,0.107,1.68,0.241c0.588,0.175,1.201-0.189,1.353-0.783c0.151-0.59-0.208-1.181-0.796-1.336 c-0.469-0.123-1.028-0.213-1.707-0.244v-0.739c0-0.513-0.416-0.928-0.928-0.928c-0.513,0-0.928,0.416-0.928,0.928v0.871 c-2.028,0.398-3.203,1.705-3.203,3.373c0,1.838,1.383,2.785,3.411,3.468c1.402,0.474,2.009,0.929,2.009,1.649 c0,0.758-0.739,1.175-1.819,1.175c-0.739,0-1.437-0.143-2.049-0.352c-0.602-0.205-1.252,0.126-1.41,0.742l-0.023,0.089 c-0.143,0.557,0.167,1.133,0.714,1.313c0.659,0.216,1.46,0.37,2.276,0.407v0.872c0,0.513,0.416,0.928,0.928,0.928h0.001 c0.513,0,0.928-0.416,0.928-0.928v-1.005c2.179-0.379,3.373-1.819,3.373-3.506C56.741,34.301,55.832,33.259,53.577,32.462z" fill="rgb(255, 255, 255)" style="fill: rgb(255, 255, 255);"></path></g></g></g><g style="transform-origin: 50px 50px 0px;"><g><g class="ld ld-tremble-px" style="transform-origin: 50px 50px 0px; animation-duration: 1s; animation-delay: -0.761905s; animation-direction: normal;"><path class="st37" d="M74.292,12.711c-5.187,0-9.406,4.22-9.406,9.406c0,5.187,4.22,9.407,9.406,9.407s9.407-4.22,9.407-9.407 C83.699,16.93,79.479,12.711,74.292,12.711z M75.016,27.039v0.853c0,0.435-0.353,0.788-0.788,0.788h0 c-0.435,0-0.788-0.353-0.788-0.788v-0.74c-0.693-0.031-1.372-0.162-1.932-0.345c-0.464-0.152-0.727-0.641-0.606-1.114l0.019-0.075 c0.134-0.523,0.686-0.804,1.197-0.63c0.52,0.177,1.112,0.299,1.74,0.299c0.917,0,1.544-0.353,1.544-0.997 c0-0.611-0.515-0.997-1.705-1.4c-1.721-0.579-2.895-1.383-2.895-2.943c0-1.416,0.998-2.525,2.719-2.863v-0.74 c0-0.435,0.353-0.788,0.788-0.788s0.788,0.353,0.788,0.788v0.627c0.576,0.026,1.05,0.102,1.449,0.207 c0.5,0.131,0.804,0.634,0.676,1.134c-0.129,0.504-0.65,0.813-1.149,0.665c-0.38-0.113-0.852-0.204-1.426-0.204 c-1.046,0-1.383,0.45-1.383,0.901c0,0.531,0.563,0.868,1.93,1.383c1.914,0.676,2.686,1.561,2.686,3.008 C77.879,25.495,76.866,26.717,75.016,27.039z" fill="rgb(255, 220, 108)" style="fill: rgb(255, 220, 108);"></path></g><g class="ld ld-tremble-px" style="transform-origin: 50px 50px 0px; animation-duration: 1s; animation-delay: -0.714286s; animation-direction: normal;"><path class="st7" d="M75.193,21.055c-1.367-0.515-1.93-0.852-1.93-1.383c0-0.451,0.338-0.901,1.383-0.901 c0.574,0,1.046,0.091,1.426,0.204c0.499,0.149,1.019-0.161,1.149-0.665c0.128-0.5-0.176-1.003-0.676-1.134 c-0.398-0.105-0.873-0.181-1.449-0.207v-0.627c0-0.435-0.353-0.788-0.788-0.788s-0.788,0.353-0.788,0.788v0.74 c-1.721,0.338-2.719,1.448-2.719,2.863c0,1.56,1.174,2.364,2.895,2.943c1.19,0.402,1.705,0.789,1.705,1.4 c0,0.644-0.627,0.997-1.544,0.997c-0.627,0-1.22-0.122-1.74-0.299c-0.511-0.174-1.063,0.107-1.197,0.63l-0.019,0.075 c-0.121,0.473,0.142,0.962,0.606,1.114c0.559,0.184,1.239,0.314,1.932,0.345v0.74c0,0.435,0.353,0.788,0.788,0.788h0 c0.435,0,0.788-0.353,0.788-0.788v-0.853c1.849-0.322,2.863-1.544,2.863-2.976C77.879,22.616,77.107,21.731,75.193,21.055z" fill="rgb(255, 255, 255)" style="fill: rgb(255, 255, 255);"></path></g></g></g><g style="transform-origin: 50px 50px 0px;"><g><g class="ld ld-tremble-px" style="transform-origin: 50px 50px 0px; animation-duration: 1s; animation-delay: -0.666667s; animation-direction: normal;"><path class="st37" d="M32.594,9c-4.713,0-8.548,3.834-8.548,8.548c0,4.713,3.834,8.548,8.548,8.548s8.548-3.835,8.548-8.548 C41.142,12.834,37.307,9,32.594,9z M33.252,22.02v0.775c0,0.396-0.321,0.716-0.716,0.716h0c-0.396,0-0.716-0.321-0.716-0.716 v-0.673c-0.629-0.028-1.247-0.147-1.755-0.314c-0.422-0.138-0.661-0.583-0.55-1.013l0.018-0.069 c0.122-0.475,0.624-0.73,1.088-0.572c0.472,0.161,1.011,0.271,1.581,0.271c0.833,0,1.403-0.321,1.403-0.906 c0-0.555-0.468-0.906-1.549-1.272c-1.564-0.526-2.631-1.257-2.631-2.675c0-1.286,0.907-2.295,2.471-2.602V12.3 c0-0.396,0.321-0.716,0.716-0.716c0.396,0,0.716,0.321,0.716,0.716v0.57c0.523,0.024,0.954,0.093,1.316,0.188 c0.454,0.119,0.731,0.576,0.614,1.03c-0.118,0.458-0.591,0.739-1.044,0.604c-0.346-0.103-0.774-0.186-1.296-0.186 c-0.95,0-1.257,0.409-1.257,0.819c0,0.482,0.512,0.789,1.754,1.257c1.739,0.614,2.441,1.418,2.441,2.733 C35.854,20.617,34.933,21.728,33.252,22.02z" fill="rgb(255, 220, 108)" style="fill: rgb(255, 220, 108);"></path></g><g class="ld ld-tremble-px" style="transform-origin: 50px 50px 0px; animation-duration: 1s; animation-delay: -0.619048s; animation-direction: normal;"><path class="st7" d="M33.413,16.583c-1.242-0.468-1.754-0.774-1.754-1.257c0-0.41,0.307-0.819,1.257-0.819 c0.522,0,0.95,0.083,1.296,0.186c0.453,0.135,0.926-0.146,1.044-0.604c0.117-0.455-0.16-0.911-0.614-1.03 c-0.362-0.095-0.793-0.165-1.316-0.188V12.3c0-0.396-0.321-0.716-0.716-0.716c-0.396,0-0.716,0.321-0.716,0.716v0.672 c-1.564,0.307-2.471,1.315-2.471,2.602c0,1.418,1.067,2.149,2.631,2.675c1.082,0.366,1.549,0.717,1.549,1.272 c0,0.585-0.57,0.906-1.403,0.906c-0.57,0-1.109-0.111-1.581-0.271c-0.464-0.158-0.966,0.097-1.088,0.572l-0.018,0.069 c-0.11,0.43,0.129,0.874,0.55,1.013c0.508,0.167,1.126,0.286,1.755,0.314v0.673c0,0.396,0.321,0.716,0.716,0.716h0 c0.396,0,0.716-0.321,0.716-0.716V22.02c1.681-0.292,2.602-1.403,2.602-2.704C35.854,18.001,35.152,17.197,33.413,16.583z" fill="rgb(255, 255, 255)" style="fill: rgb(255, 255, 255);"></path></g></g></g><metadata xmlns:d="https://loading.io/stock/" class="ld ld-tremble-px" style="transform-origin: 50px 50px 0px; animation-duration: 1s; animation-delay: -0.571429s; animation-direction: normal;">
<d:name class="ld ld-tremble-px" style="transform-origin: 50px 50px 0px; animation-duration: 1s; animation-delay: -0.52381s; animation-direction: normal;">saving</d:name>
<d:tags class="ld ld-tremble-px" style="transform-origin: 50px 50px 0px; animation-duration: 1s; animation-delay: -0.47619s; animation-direction: normal;">deposit,withdraw,coin bank,piggy bank,money,buck,saving,business</d:tags>
<d:license class="ld ld-tremble-px" style="transform-origin: 50px 50px 0px; animation-duration: 1s; animation-delay: -0.428571s; animation-direction: normal;">rf</d:license>
<d:slug class="ld ld-tremble-px" style="transform-origin: 50px 50px 0px; animation-duration: 1s; animation-delay: -0.380952s; animation-direction: normal;">no9d3d</d:slug>
</metadata></g></g></g></g><style type="text/css" class="ld ld-tremble-px" style="transform-origin: 50px 50px 0px; animation-duration: 1s; animation-delay: -0.333333s; animation-direction: normal;">path,ellipse,circle,rect,polygon,polyline,line { stroke-width: 0; }@keyframes ld-tremble-px {
  0% {
    -webkit-transform: translate(1px, 1px);
    transform: translate(1px, 1px);
  }
  5% {
    -webkit-transform: translate(0, 1px);
    transform: translate(0, 1px);
  }
  10% {
    -webkit-transform: translate(1px, 2px);
    transform: translate(1px, 2px);
  }
  15% {
    -webkit-transform: translate(2px, 1px);
    transform: translate(2px, 1px);
  }
  20% {
    -webkit-transform: translate(3px, 0);
    transform: translate(3px, 0);
  }
  25% {
    -webkit-transform: translate(1px, 2px);
    transform: translate(1px, 2px);
  }
  30% {
    -webkit-transform: translate(1px, 3px);
    transform: translate(1px, 3px);
  }
  35% {
    -webkit-transform: translate(0, 1px);
    transform: translate(0, 1px);
  }
  40% {
    -webkit-transform: translate(1px, 1px);
    transform: translate(1px, 1px);
  }
  45% {
    -webkit-transform: translate(1px, 0);
    transform: translate(1px, 0);
  }
  50% {
    -webkit-transform: translate(2px, 1px);
    transform: translate(2px, 1px);
  }
  55% {
    -webkit-transform: translate(1px, 2px);
    transform: translate(1px, 2px);
  }
  60% {
    -webkit-transform: translate(3px, 1px);
    transform: translate(3px, 1px);
  }
  65% {
    -webkit-transform: translate(0, 2px);
    transform: translate(0, 2px);
  }
  70% {
    -webkit-transform: translate(3px, 0);
    transform: translate(3px, 0);
  }
  75% {
    -webkit-transform: translate(0, 0);
    transform: translate(0, 0);
  }
  80% {
    -webkit-transform: translate(2px, 3px);
    transform: translate(2px, 3px);
  }
  85% {
    -webkit-transform: translate(1px, 0);
    transform: translate(1px, 0);
  }
  90% {
    -webkit-transform: translate(0, 2px);
    transform: translate(0, 2px);
  }
  95% {
    -webkit-transform: translate(3px, 2px);
    transform: translate(3px, 2px);
  }
}
@-webkit-keyframes ld-tremble-px {
  0% {
    -webkit-transform: translate(1px, 1px);
    transform: translate(1px, 1px);
  }
  5% {
    -webkit-transform: translate(0, 1px);
    transform: translate(0, 1px);
  }
  10% {
    -webkit-transform: translate(1px, 2px);
    transform: translate(1px, 2px);
  }
  15% {
    -webkit-transform: translate(2px, 1px);
    transform: translate(2px, 1px);
  }
  20% {
    -webkit-transform: translate(3px, 0);
    transform: translate(3px, 0);
  }
  25% {
    -webkit-transform: translate(1px, 2px);
    transform: translate(1px, 2px);
  }
  30% {
    -webkit-transform: translate(1px, 3px);
    transform: translate(1px, 3px);
  }
  35% {
    -webkit-transform: translate(0, 1px);
    transform: translate(0, 1px);
  }
  40% {
    -webkit-transform: translate(1px, 1px);
    transform: translate(1px, 1px);
  }
  45% {
    -webkit-transform: translate(1px, 0);
    transform: translate(1px, 0);
  }
  50% {
    -webkit-transform: translate(2px, 1px);
    transform: translate(2px, 1px);
  }
  55% {
    -webkit-transform: translate(1px, 2px);
    transform: translate(1px, 2px);
  }
  60% {
    -webkit-transform: translate(3px, 1px);
    transform: translate(3px, 1px);
  }
  65% {
    -webkit-transform: translate(0, 2px);
    transform: translate(0, 2px);
  }
  70% {
    -webkit-transform: translate(3px, 0);
    transform: translate(3px, 0);
  }
  75% {
    -webkit-transform: translate(0, 0);
    transform: translate(0, 0);
  }
  80% {
    -webkit-transform: translate(2px, 3px);
    transform: translate(2px, 3px);
  }
  85% {
    -webkit-transform: translate(1px, 0);
    transform: translate(1px, 0);
  }
  90% {
    -webkit-transform: translate(0, 2px);
    transform: translate(0, 2px);
  }
  95% {
    -webkit-transform: translate(3px, 2px);
    transform: translate(3px, 2px);
  }
}
.ld.ld-tremble-px {
  -webkit-animation: ld-tremble-px 1s infinite;
  animation: ld-tremble-px 1s infinite;
}
</style></svg></svg>