<svg class="ldi-97r94" width="100%" height="100%" xmlns="http://www.w3.org/2000/svg" xmlns:xlink="http://www.w3.org/1999/xlink" viewBox="0 0 100 100" preserveAspectRatio="xMidYMid"><!--?xml version="1.0" encoding="utf-8"?--><!--Generator: Adobe Illustrator 21.0.0, SVG Export Plug-In . SVG Version: 6.00 Build 0)--><svg version="1.1" id="圖層_1" xmlns="http://www.w3.org/2000/svg" xmlns:xlink="http://www.w3.org/1999/xlink" x="0px" y="0px" viewBox="0 0 100 100" style="transform-origin: 50px 50px 0px;" xml:space="preserve"><g style="transform-origin: 50px 50px 0px;"><g style="transform-origin: 50px 50px 0px; transform: scale(0.6);"><g style="transform-origin: 50px 50px 0px;"><g><style type="text/css" class="ld ld-breath" style="transform-origin: 50px 50px 0px; animation-duration: 1s; animation-delay: -1s; animation-direction: normal;">.st0{fill:none;stroke:#F8B26A;stroke-width:4;stroke-miterlimit:10;} .st1{fill:#E15B64;} .st2{fill:#ABBD81;} .st3{fill:#849B87;} .st4{fill:#F5E6C8;} .st5{fill:#C8DC96;} .st6{fill:#CCCCCC;} .st7{fill:#333333;} .st8{fill:#E0E0E0;} .st9{fill:#FFFFFF;stroke:#E15B64;stroke-width:9.375;stroke-miterlimit:10;} .st10{fill:#E0E0E0;stroke:#333333;stroke-width:3;stroke-linecap:round;stroke-miterlimit:10;} .st11{fill:#666666;stroke:#333333;stroke-width:3;stroke-linecap:round;stroke-miterlimit:10;} .st12{fill:none;stroke:#E15B64;stroke-width:8;stroke-miterlimit:10;} .st13{fill:#E0E0E0;stroke:#333333;stroke-width:2.5723;stroke-linecap:round;stroke-miterlimit:10;} .st14{fill:#666666;stroke:#333333;stroke-width:2.5723;stroke-linecap:round;stroke-miterlimit:10;} .st15{fill:#E0E0E0;stroke:#333333;stroke-width:2.935;stroke-linecap:round;stroke-miterlimit:10;} .st16{fill:#666666;stroke:#333333;stroke-width:2.935;stroke-linecap:round;stroke-miterlimit:10;} .st17{fill:#ABBD81;stroke:#333333;stroke-width:3.5653;stroke-linecap:round;stroke-miterlimit:10;} .st18{fill:none;stroke:#333333;stroke-width:4.208;stroke-linecap:round;stroke-miterlimit:10;} .st19{fill:#F47E60;stroke:#333333;stroke-width:3.607;stroke-miterlimit:10;} .st20{fill:#F47E60;stroke:#333333;stroke-width:4.0972;stroke-miterlimit:10;} .st21{fill:#F47E60;stroke:#333333;stroke-width:4.2085;stroke-miterlimit:10;} .st22{fill:#F8B26A;} .st23{fill:#FFFFFF;} .st24{fill:#FFFFFF;stroke:#FFFFFF;stroke-miterlimit:10;} .st25{fill:none;stroke:#FFFFFF;stroke-width:2;stroke-linecap:round;stroke-miterlimit:10;} .st26{fill:#E0E0E0;stroke:#332518;stroke-width:4;stroke-linecap:round;stroke-miterlimit:10;} .st27{fill:#66503A;} .st28{fill:#666666;} .st29{fill:#FFFFFF;stroke:#E0E0E0;stroke-width:5;stroke-linecap:round;stroke-miterlimit:10;} .st30{fill:none;stroke:#666666;stroke-width:4;stroke-miterlimit:10;stroke-dasharray:7.8519,7.8519;} .st31{fill:#F8B26A;stroke:#F47E60;stroke-width:4;stroke-miterlimit:10;} .st32{fill:none;stroke:#C33737;stroke-width:8;stroke-miterlimit:10;} .st33{fill:#A0C8D7;} .st34{fill:#F47E60;} .st35{fill:#C33737;stroke:#E15B64;stroke-width:5;stroke-miterlimit:10;} .st36{fill:#4A3827;} .st37{opacity:0.5;} .st38{fill:none;stroke:#000000;stroke-width:2.2018;stroke-miterlimit:10;} .st39{fill:none;stroke:#000000;stroke-width:2.2018;stroke-miterlimit:10;stroke-dasharray:4.7318,4.7318;} .st40{fill:none;stroke:#333333;stroke-width:7.4066;stroke-miterlimit:10;} .st41{fill:none;stroke:#333333;stroke-width:7.6862;stroke-miterlimit:10;} .st42{fill:#F8B26A;stroke:#333333;stroke-width:4;stroke-miterlimit:10;} .st43{fill:#F5E6C8;stroke:#333333;stroke-width:4;stroke-miterlimit:10;} .st44{fill:none;stroke:#333333;stroke-width:4;stroke-miterlimit:10;} .st45{opacity:0.2;} .st46{fill:none;stroke:#332518;stroke-width:4;stroke-linecap:round;stroke-miterlimit:10;} .st47{fill-rule:evenodd;clip-rule:evenodd;fill:#B5B5B5;} .st48{fill:#FFFFFF;stroke:#FFFFFF;stroke-width:0.6282;stroke-miterlimit:10;} .st49{fill:none;stroke:#FFFFFF;stroke-width:1.2563;stroke-linecap:round;stroke-miterlimit:10;} .st50{opacity:0.6;fill:#F5E169;} .st51{fill:none;} .st52{fill:#F8B26A;stroke:#333333;stroke-width:3.6728;stroke-linejoin:round;stroke-miterlimit:10;} .st53{fill:none;stroke:#E0E0E0;stroke-width:1.5;stroke-miterlimit:10;} .st54{fill:#66503A;stroke:#4A3827;stroke-width:3;stroke-miterlimit:10;} .st55{fill:none;stroke:#4A3827;stroke-width:3;stroke-miterlimit:10;} .st56{fill:none;stroke:#333333;stroke-width:3.1166;stroke-linecap:round;stroke-miterlimit:10;} .st57{fill:#999999;stroke:#333333;stroke-width:3;stroke-miterlimit:10;} .st58{fill:#E0E0E0;stroke:#333333;stroke-width:3.5653;stroke-linecap:round;stroke-miterlimit:10;} .st59{fill:#666666;stroke:#333333;stroke-width:3.5653;stroke-linecap:round;stroke-miterlimit:10;} .st60{fill:none;stroke:#333333;stroke-width:3;stroke-miterlimit:10;} .st61{fill:#E0E0E0;stroke:#333333;stroke-width:3.1759;stroke-linecap:round;stroke-miterlimit:10;} .st62{fill:#666666;stroke:#333333;stroke-width:3.1759;stroke-linecap:round;stroke-miterlimit:10;} .st63{fill:#E0E0E0;stroke:#333333;stroke-width:3.1886;stroke-linecap:round;stroke-miterlimit:10;} .st64{fill:#666666;stroke:#333333;stroke-width:3.1886;stroke-linecap:round;stroke-miterlimit:10;} .st65{fill:#E0E0E0;stroke:#333333;stroke-width:3.1503;stroke-linecap:round;stroke-miterlimit:10;} .st66{fill:#666666;stroke:#333333;stroke-width:3.1503;stroke-linecap:round;stroke-miterlimit:10;} .st67{fill:#FFFFFF;stroke:#333333;stroke-width:4;stroke-miterlimit:10;} .st68{fill:none;stroke:#849B87;stroke-width:4;stroke-linecap:round;stroke-miterlimit:10;} .st69{fill:#FFFFFF;stroke:#333333;stroke-width:3.9519;stroke-miterlimit:10;} .st70{fill:none;stroke:#E15B64;stroke-width:3.9519;stroke-linecap:round;stroke-miterlimit:10;} .st71{fill:#FFFFFF;stroke:#333333;stroke-width:3.9841;stroke-miterlimit:10;} .st72{fill:#C33737;} .st73{fill:none;stroke:#E15B64;stroke-width:9.8945;stroke-miterlimit:10;} .st74{fill:#ABBD81;stroke:#333333;stroke-width:2.9913;stroke-linecap:round;stroke-miterlimit:10;} .st75{fill:#66503A;stroke:#333333;stroke-width:2.9913;stroke-linecap:round;stroke-miterlimit:10;} .st76{fill:#E0E0E0;stroke:#333333;stroke-width:2.8537;stroke-linecap:round;stroke-miterlimit:10;} .st77{fill:#666666;stroke:#333333;stroke-width:2.8537;stroke-linecap:round;stroke-miterlimit:10;} .st78{fill:#E0E0E0;stroke:#333333;stroke-width:3.1909;stroke-linecap:round;stroke-miterlimit:10;} .st79{fill:#666666;stroke:#333333;stroke-width:3.1909;stroke-linecap:round;stroke-miterlimit:10;} .st80{fill:#666666;stroke:#333333;stroke-width:4.9453;stroke-linecap:round;stroke-miterlimit:10;} .st81{fill:#F5E6C8;stroke:#333333;stroke-width:4.0165;stroke-linecap:round;stroke-linejoin:round;stroke-miterlimit:10;} .st82{fill:#E0E0E0;stroke:#333333;stroke-width:3;stroke-miterlimit:10;} .st83{fill:#666666;stroke:#333333;stroke-width:3;stroke-miterlimit:10;} .st84{fill:#F5E6C8;stroke:#333333;stroke-miterlimit:10;} .st85{fill:#F8B26A;stroke:#333333;stroke-miterlimit:10;} .st86{fill:#77A4BD;} .st87{fill:none;stroke:#333333;stroke-width:2.3991;stroke-miterlimit:10;} .st88{fill:#666666;stroke:#333333;stroke-width:5.1406;stroke-linecap:round;stroke-miterlimit:10;} .st89{fill:#66503A;stroke:#333333;stroke-width:3;stroke-linecap:round;stroke-miterlimit:10;}</style><g style="transform-origin: 50px 50px 0px;"><g><g class="ld ld-breath" style="transform-origin: 50px 50px 0px; animation-duration: 1s; animation-delay: -0.96s; animation-direction: normal;"><path class="st22" d="M31.5,7.84C16.888,7.84,5,19.728,5,34.34C5,48.952,16.888,60.84,31.5,60.84C46.112,60.84,58,48.952,58,34.34 C58,19.728,46.112,7.84,31.5,7.84z" fill="rgb(248, 178, 106)" style="fill: rgb(248, 178, 106);"></path></g><g class="ld ld-breath" style="transform-origin: 50px 50px 0px; animation-duration: 1s; animation-delay: -0.92s; animation-direction: normal;"><path class="st4" d="M34.038,31.348c-3.852-1.449-5.438-2.401-5.438-3.896c0-1.27,0.952-2.539,3.897-2.539 c1.618,0,2.946,0.256,4.017,0.576c1.406,0.419,2.872-0.452,3.236-1.873c0.361-1.41-0.497-2.825-1.904-3.195 c-1.122-0.295-2.459-0.51-4.081-0.583v-1.767c0-1.226-0.994-2.22-2.22-2.22c-1.226,0-2.22,0.994-2.22,2.22v2.084 c-4.849,0.952-7.659,4.078-7.659,8.066c0,4.395,3.308,6.661,8.157,8.292c3.354,1.134,4.803,2.222,4.803,3.943 c0,1.813-1.767,2.809-4.35,2.809c-1.767,0-3.437-0.343-4.901-0.842c-1.439-0.49-2.994,0.301-3.372,1.774l-0.055,0.213 c-0.342,1.333,0.399,2.71,1.706,3.139c1.576,0.517,3.491,0.885,5.442,0.972v2.085c0,1.226,0.994,2.22,2.22,2.22h0.001 c1.226,0,2.22-0.994,2.22-2.22v-2.402c5.21-0.906,8.066-4.35,8.066-8.383C41.606,35.744,39.43,33.252,34.038,31.348z" fill="rgb(245, 230, 200)" style="fill: rgb(245, 230, 200);"></path></g></g></g><g style="transform-origin: 50px 50px 0px;"><g><g class="ld ld-breath" style="transform-origin: 50px 50px 0px; animation-duration: 1s; animation-delay: -0.88s; animation-direction: normal;"><path class="st22" d="M76.5,43.725C66.299,43.725,58,52.024,58,62.225c0,10.201,8.299,18.5,18.499,18.5 c10.201,0,18.5-8.299,18.5-18.5C95,52.024,86.7,43.725,76.5,43.725z" fill="rgb(248, 178, 106)" style="fill: rgb(248, 178, 106);"></path></g><g class="ld ld-breath" style="transform-origin: 50px 50px 0px; animation-duration: 1s; animation-delay: -0.84s; animation-direction: normal;"><path class="st4" d="M78.271,60.137c-2.689-1.012-3.796-1.676-3.796-2.72c0-0.887,0.664-1.772,2.721-1.772 c1.129,0,2.056,0.179,2.804,0.402c0.981,0.292,2.005-0.316,2.259-1.307c0.252-0.984-0.347-1.972-1.329-2.23 c-0.783-0.206-1.717-0.356-2.849-0.407v-1.233c0-0.856-0.694-1.55-1.55-1.55s-1.55,0.694-1.55,1.55v1.455 c-3.385,0.664-5.347,2.847-5.347,5.631c0,3.068,2.31,4.65,5.694,5.789c2.341,0.791,3.353,1.551,3.353,2.752 c0,1.266-1.233,1.961-3.036,1.961c-1.234,0-2.399-0.239-3.421-0.588c-1.005-0.342-2.09,0.21-2.354,1.238l-0.038,0.148 c-0.239,0.931,0.278,1.892,1.191,2.192c1.1,0.361,2.437,0.618,3.799,0.679v1.456c0,0.856,0.694,1.55,1.55,1.55h0.001 c0.856,0,1.55-0.694,1.55-1.55v-1.677c3.637-0.633,5.631-3.037,5.631-5.852C83.555,63.206,82.036,61.466,78.271,60.137z" fill="rgb(245, 230, 200)" style="fill: rgb(245, 230, 200);"></path></g></g></g><g style="transform-origin: 50px 50px 0px;"><g><g class="ld ld-breath" style="transform-origin: 50px 50px 0px; animation-duration: 1s; animation-delay: -0.8s; animation-direction: normal;"><path class="st22" d="M74.139,13.75c-6.065,0-11,4.934-11,11c0,6.065,4.934,11,11,11c6.065,0,11-4.935,11-11 C85.139,18.684,80.204,13.75,74.139,13.75z" fill="rgb(248, 178, 106)" style="fill: rgb(248, 178, 106);"></path></g><g class="ld ld-breath" style="transform-origin: 50px 50px 0px; animation-duration: 1s; animation-delay: -0.76s; animation-direction: normal;"><path class="st4" d="M75.193,23.508c-1.599-0.602-2.257-0.997-2.257-1.617c0-0.527,0.395-1.054,1.618-1.054 c0.672,0,1.223,0.106,1.668,0.239c0.583,0.174,1.192-0.188,1.343-0.777c0.15-0.585-0.206-1.172-0.79-1.326 c-0.466-0.122-1.021-0.212-1.694-0.242v-0.733c0-0.509-0.413-0.922-0.922-0.922c-0.509,0-0.922,0.413-0.922,0.922v0.865 c-2.013,0.395-3.179,1.693-3.179,3.348c0,1.824,1.373,2.765,3.386,3.442c1.392,0.471,1.994,0.922,1.994,1.637 c0,0.753-0.733,1.166-1.805,1.166c-0.734,0-1.427-0.142-2.034-0.349c-0.597-0.204-1.243,0.125-1.4,0.736l-0.023,0.088 c-0.142,0.553,0.166,1.125,0.708,1.303c0.654,0.215,1.449,0.368,2.259,0.404v0.865c0,0.509,0.413,0.922,0.922,0.922h0.001 c0.509,0,0.922-0.413,0.922-0.922v-0.997c2.163-0.376,3.348-1.805,3.348-3.48C78.334,25.333,77.431,24.299,75.193,23.508z" fill="rgb(245, 230, 200)" style="fill: rgb(245, 230, 200);"></path></g></g></g><g style="transform-origin: 50px 50px 0px;"><g><g class="ld ld-breath" style="transform-origin: 50px 50px 0px; animation-duration: 1s; animation-delay: -0.72s; animation-direction: normal;"><path class="st22" d="M43.156,64.16c-7.719,0-14,6.28-14,14c0,7.72,6.28,14,14,14c7.72,0,14-6.281,14-14 C57.156,70.44,50.875,64.16,43.156,64.16z" fill="rgb(248, 178, 106)" style="fill: rgb(248, 178, 106);"></path></g><g class="ld ld-breath" style="transform-origin: 50px 50px 0px; animation-duration: 1s; animation-delay: -0.68s; animation-direction: normal;"><path class="st4" d="M44.496,76.579c-2.035-0.766-2.873-1.268-2.873-2.058c0-0.671,0.503-1.341,2.059-1.341 c0.855,0,1.556,0.135,2.122,0.304c0.743,0.221,1.517-0.239,1.71-0.989c0.191-0.745-0.262-1.492-1.006-1.688 c-0.593-0.156-1.299-0.269-2.156-0.308v-0.933c0-0.648-0.525-1.173-1.173-1.173s-1.173,0.525-1.173,1.173v1.101 c-2.562,0.503-4.046,2.154-4.046,4.261c0,2.322,1.748,3.519,4.309,4.381c1.772,0.599,2.538,1.174,2.538,2.083 c0,0.958-0.933,1.484-2.298,1.484c-0.934,0-1.816-0.181-2.589-0.445c-0.76-0.259-1.582,0.159-1.781,0.937L38.11,83.48 c-0.181,0.704,0.211,1.432,0.902,1.658c0.833,0.273,1.844,0.468,2.875,0.514v1.102c0,0.648,0.525,1.173,1.173,1.173h0.001 c0.648,0,1.173-0.525,1.173-1.173v-1.269c2.753-0.479,4.261-2.298,4.261-4.429C48.495,78.902,47.345,77.585,44.496,76.579z" fill="rgb(245, 230, 200)" style="fill: rgb(245, 230, 200);"></path></g></g></g><g style="transform-origin: 50px 50px 0px;"><g><g class="ld ld-breath" style="transform-origin: 50px 50px 0px; animation-duration: 1s; animation-delay: -0.64s; animation-direction: normal;"><circle class="st22" cx="16.156" cy="70.93" r="8" fill="rgb(248, 178, 106)" style="fill: rgb(248, 178, 106);"></circle></g><g class="ld ld-breath" style="transform-origin: 50px 50px 0px; animation-duration: 1s; animation-delay: -0.6s; animation-direction: normal;"><path class="st4" d="M16.922,70.027c-1.163-0.438-1.642-0.725-1.642-1.176c0-0.383,0.287-0.766,1.176-0.766 c0.488,0,0.889,0.077,1.213,0.174c0.424,0.126,0.867-0.136,0.977-0.565c0.109-0.426-0.15-0.853-0.575-0.964 c-0.339-0.089-0.742-0.154-1.232-0.176v-0.533c0-0.37-0.3-0.67-0.67-0.67c-0.37,0-0.67,0.3-0.67,0.67v0.629 c-1.464,0.287-2.312,1.231-2.312,2.435c0,1.327,0.999,2.011,2.462,2.503c1.012,0.342,1.45,0.671,1.45,1.19 c0,0.547-0.533,0.848-1.313,0.848c-0.534,0-1.038-0.103-1.479-0.254c-0.434-0.148-0.904,0.091-1.018,0.536l-0.016,0.064 c-0.103,0.402,0.12,0.818,0.515,0.948c0.476,0.156,1.054,0.267,1.643,0.294v0.629c0,0.37,0.3,0.67,0.67,0.67h0 c0.37,0,0.67-0.3,0.67-0.67v-0.725c1.573-0.274,2.435-1.313,2.435-2.531C19.207,71.354,18.55,70.602,16.922,70.027z" fill="rgb(245, 230, 200)" style="fill: rgb(245, 230, 200);"></path></g></g></g><metadata xmlns:d="https://loading.io/stock/" class="ld ld-breath" style="transform-origin: 50px 50px 0px; animation-duration: 1s; animation-delay: -0.56s; animation-direction: normal;">
<d:name class="ld ld-breath" style="transform-origin: 50px 50px 0px; animation-duration: 1s; animation-delay: -0.52s; animation-direction: normal;">coin</d:name>
<d:tags class="ld ld-breath" style="transform-origin: 50px 50px 0px; animation-duration: 1s; animation-delay: -0.48s; animation-direction: normal;">coin,dollar,money,bucks,currency,price,value,interest</d:tags>
<d:license class="ld ld-breath" style="transform-origin: 50px 50px 0px; animation-duration: 1s; animation-delay: -0.44s; animation-direction: normal;">cc-by</d:license>
<d:slug class="ld ld-breath" style="transform-origin: 50px 50px 0px; animation-duration: 1s; animation-delay: -0.4s; animation-direction: normal;">97r94</d:slug>
</metadata></g></g></g></g><style type="text/css" class="ld ld-breath" style="transform-origin: 50px 50px 0px; animation-duration: 1s; animation-delay: -0.36s; animation-direction: normal;">path,ellipse,circle,rect,polygon,polyline,line { stroke-width: 0; }@keyframes ld-breath {
  0% {
    -webkit-transform: scale(0.86);
    transform: scale(0.86);
  }
  50% {
    -webkit-transform: scale(1.06);
    transform: scale(1.06);
  }
  100% {
    -webkit-transform: scale(0.86);
    transform: scale(0.86);
  }
}
@-webkit-keyframes ld-breath {
  0% {
    -webkit-transform: scale(0.86);
    transform: scale(0.86);
  }
  50% {
    -webkit-transform: scale(1.06);
    transform: scale(1.06);
  }
  100% {
    -webkit-transform: scale(0.86);
    transform: scale(0.86);
  }
}
.ld.ld-breath {
  -webkit-animation: ld-breath 1s infinite;
  animation: ld-breath 1s infinite;
}
</style></svg></svg>