<svg class="ldi-lw7zpg" width="100%" height="100%" xmlns="http://www.w3.org/2000/svg" xmlns:xlink="http://www.w3.org/1999/xlink" viewBox="0 0 100 100" preserveAspectRatio="xMidYMid"><!--?xml version="1.0" encoding="utf-8"?--><!--Generator: Adobe Illustrator 21.0.0, SVG Export Plug-In . SVG Version: 6.00 Build 0)--><svg version="1.1" id="Layer_1" xmlns="http://www.w3.org/2000/svg" xmlns:xlink="http://www.w3.org/1999/xlink" x="0px" y="0px" viewBox="0 0 100 100" style="transform-origin: 50px 50px 0px;" xml:space="preserve"><g style="transform-origin: 50px 50px 0px;"><g style="transform-origin: 50px 50px 0px; transform: scale(0.6);"><g style="transform-origin: 50px 50px 0px;"><g><g style="transform-origin: 50px 50px 0px;"><g><g class="ld ld-breath" style="transform-origin: 50px 50px 0px; animation-duration: 1s; animation-delay: -1s; animation-direction: normal;"><path style="fill: rgb(157, 245, 155);" d="M90,89.82l-2.579-14.291c-1.254-6.949-6.742-12.36-13.708-13.515L50,58.083l-23.713,3.931 c-6.967,1.155-12.454,6.565-13.708,13.515L10,89.82H90z" fill="#9df59b"></path></g><g style="transform-origin: 50px 50px 0px;"><g><g class="ld ld-breath" style="transform-origin: 50px 50px 0px; animation-duration: 1s; animation-delay: -0.96s; animation-direction: normal;"><polygon style="fill: rgb(157, 245, 155);" points="56.936,73.187 50,79.044 43.064,73.187 43.064,61.782 56.936,61.782 		" fill="#9df59b"></polygon></g><g class="ld ld-breath" style="transform-origin: 50px 50px 0px; animation-duration: 1s; animation-delay: -0.92s; animation-direction: normal;"><polygon style="fill: rgb(157, 245, 155);" points="55.038,90.079 53.167,75.913 47.28,75.913 45.41,90.079 		" fill="#9df59b"></polygon></g></g></g><g class="ld ld-breath" style="transform-origin: 50px 50px 0px; animation-duration: 1s; animation-delay: -0.88s; animation-direction: normal;"><polygon style="fill: rgb(255, 255, 255);" points="41.369,59.933 35.367,55.105 29.347,61.507 42.602,76.886 48.15,62.707 	" fill="rgb(255, 255, 255)"></polygon></g><g class="ld ld-breath" style="transform-origin: 50px 50px 0px; animation-duration: 1s; animation-delay: -0.84s; animation-direction: normal;"><polygon style="fill: rgb(255, 255, 255);" points="58.631,59.933 64.633,55.105 70.653,61.507 57.398,76.886 51.85,62.707 	" fill="rgb(255, 255, 255)"></polygon></g><g style="transform-origin: 50px 50px 0px;"><g><g class="ld ld-breath" style="transform-origin: 50px 50px 0px; animation-duration: 1s; animation-delay: -0.8s; animation-direction: normal;"><path style="fill: rgb(244, 230, 200);" d="M70.653,35.426c0,13.96-9.247,28.976-20.653,28.976S29.347,49.386,29.347,35.426 S38.594,13.849,50,13.849S70.653,21.467,70.653,35.426z" fill="rgb(244, 230, 200)"></path></g><g class="ld ld-breath" style="transform-origin: 50px 50px 0px; animation-duration: 1s; animation-delay: -0.76s; animation-direction: normal;"><path style="fill: rgb(50, 50, 50);" d="M50,13.849c-11.406,0-20.653,7.618-20.653,21.578c0,0.755,0.032,1.512,0.085,2.271 c9.204-0.41,17.422-3.85,23.201-9.121c2.853,5.516,7.75,9.162,13.319,9.162c1.624,0,3.191-0.314,4.667-0.89 c0.021-0.475,0.034-0.949,0.034-1.422C70.653,21.467,61.406,13.849,50,13.849z" fill="rgb(50, 50, 50)"></path></g></g></g></g></g><g style="transform-origin: 50px 50px 0px;"><g><g class="ld ld-breath" style="transform-origin: 50px 50px 0px; animation-duration: 1s; animation-delay: -0.72s; animation-direction: normal;"><path style="fill: none; stroke: rgb(50, 50, 50); stroke-width: 3; stroke-linecap: round; stroke-linejoin: round; stroke-miterlimit: 10;" d=" M73.754,34.98v-2.161c0-12.646-10.252-22.898-22.898-22.898h-1.711c-12.646,0-22.898,10.252-22.898,22.898v2.161" stroke="rgb(50, 50, 50)"></path></g><g class="ld ld-breath" style="transform-origin: 50px 50px 0px; animation-duration: 1s; animation-delay: -0.68s; animation-direction: normal;"><path style="fill: none; stroke: rgb(50, 50, 50); stroke-width: 3; stroke-linecap: round; stroke-linejoin: round; stroke-miterlimit: 10;" d=" M44.177,62.128c-9.903,0-17.931-8.028-17.931-17.931v-7.128" stroke="rgb(50, 50, 50)"></path></g><g class="ld ld-breath" style="transform-origin: 50px 50px 0px; animation-duration: 1s; animation-delay: -0.64s; animation-direction: normal;"><line style="fill: none; stroke: rgb(50, 50, 50); stroke-width: 9; stroke-linecap: round; stroke-linejoin: round; stroke-miterlimit: 10;" x1="50" y1="62.128" x2="44.177" y2="62.128" stroke="rgb(50, 50, 50)"></line></g><g class="ld ld-breath" style="transform-origin: 50px 50px 0px; animation-duration: 1s; animation-delay: -0.6s; animation-direction: normal;"><path style="fill: rgb(50, 50, 50); stroke: rgb(50, 50, 50); stroke-width: 3; stroke-linecap: round; stroke-linejoin: round; stroke-miterlimit: 10;" d=" M26.246,48.639L26.246,48.639c-5.31,0-9.615-4.305-9.615-9.615v-4.282c0-5.31,4.305-9.615,9.615-9.615h0V48.639z" fill="rgb(50, 50, 50)" stroke="rgb(50, 50, 50)"></path></g><g class="ld ld-breath" style="transform-origin: 50px 50px 0px; animation-duration: 1s; animation-delay: -0.56s; animation-direction: normal;"><path style="fill: rgb(50, 50, 50); stroke: rgb(50, 50, 50); stroke-width: 3; stroke-linecap: round; stroke-linejoin: round; stroke-miterlimit: 10;" d=" M73.754,48.639L73.754,48.639c5.31,0,9.615-4.305,9.615-9.615v-4.282c0-5.31-4.305-9.615-9.615-9.615h0V48.639z" fill="rgb(50, 50, 50)" stroke="rgb(50, 50, 50)"></path></g></g></g><metadata xmlns:d="https://loading.io/stock/" class="ld ld-breath" style="transform-origin: 50px 50px 0px; animation-duration: 1s; animation-delay: -0.52s; animation-direction: normal;">
<d:name class="ld ld-breath" style="transform-origin: 50px 50px 0px; animation-duration: 1s; animation-delay: -0.48s; animation-direction: normal;">customer service</d:name>
<d:tags class="ld ld-breath" style="transform-origin: 50px 50px 0px; animation-duration: 1s; animation-delay: -0.44s; animation-direction: normal;">customer service,support,helpdesk,contact,information,expertise,servant,call center,operator,concall</d:tags>
<d:license class="ld ld-breath" style="transform-origin: 50px 50px 0px; animation-duration: 1s; animation-delay: -0.4s; animation-direction: normal;">cc-by</d:license>
<d:slug class="ld ld-breath" style="transform-origin: 50px 50px 0px; animation-duration: 1s; animation-delay: -0.36s; animation-direction: normal;">lw7zpg</d:slug>
</metadata></g></g></g></g><style type="text/css" class="ld ld-breath" style="transform-origin: 50px 50px 0px; animation-duration: 1s; animation-delay: -0.32s; animation-direction: normal;">path,ellipse,circle,rect,polygon,polyline,line { stroke-width: 0; }@keyframes ld-breath {
  0% {
    -webkit-transform: scale(0.86);
    transform: scale(0.86);
  }
  50% {
    -webkit-transform: scale(1.06);
    transform: scale(1.06);
  }
  100% {
    -webkit-transform: scale(0.86);
    transform: scale(0.86);
  }
}
@-webkit-keyframes ld-breath {
  0% {
    -webkit-transform: scale(0.86);
    transform: scale(0.86);
  }
  50% {
    -webkit-transform: scale(1.06);
    transform: scale(1.06);
  }
  100% {
    -webkit-transform: scale(0.86);
    transform: scale(0.86);
  }
}
.ld.ld-breath {
  -webkit-animation: ld-breath 1s infinite;
  animation: ld-breath 1s infinite;
}
</style></svg></svg>